<svg xmlns="http://www.w3.org/2000/svg" viewBox="0 0 1200 800" font-family="Inter, sans-serif">
  <rect width="1200" height="800" fill="#f0f2f5"/>
  <rect x="0" y="0" width="240" height="800" fill="#1a1a2e"/>
  <text x="24" y="40" fill="white" font-size="18" font-weight="bold">🛡 Admin Panel</text>
  <line x1="0" y1="56" x2="240" y2="56" stroke="rgba(255,255,255,0.1)"/>
  <rect x="12" y="72" width="216" height="40" rx="8" fill="transparent"/><text x="36" y="97" fill="rgba(255,255,255,0.7)" font-size="14">📊 Dashboard</text>
  <rect x="12" y="120" width="216" height="40" rx="8" fill="transparent"/><text x="36" y="145" fill="rgba(255,255,255,0.7)" font-size="14">👥 Users</text>
  <rect x="12" y="168" width="216" height="40" rx="8" fill="transparent"/><text x="36" y="193" fill="rgba(255,255,255,0.7)" font-size="14">📋 Bookings</text>
  <rect x="12" y="216" width="216" height="40" rx="8" fill="#3f51b5"/><text x="36" y="241" fill="white" font-size="14">📈 Analytics</text>
  <rect x="12" y="264" width="216" height="40" rx="8" fill="transparent"/><text x="36" y="289" fill="rgba(255,255,255,0.7)" font-size="14">🎫 Support</text>
  <rect x="12" y="312" width="216" height="40" rx="8" fill="transparent"/><text x="36" y="337" fill="rgba(255,255,255,0.7)" font-size="14">⚠ Fraud Alerts</text>
  <rect x="12" y="360" width="216" height="40" rx="8" fill="transparent"/><text x="36" y="385" fill="rgba(255,255,255,0.7)" font-size="14">🔧 System</text>
  <text x="272" y="40" font-size="24" font-weight="bold" fill="#1a1a2e">Analytics & Reports</text><text x="272" y="60" font-size="12" fill="#888">Platform performance metrics</text>
  <rect x="272" y="75" width="240" height="32" rx="16" fill="#e0e0e0"/>
  <rect x="272" y="75" width="80" height="32" rx="16" fill="#3f51b5"/><text x="296" y="95" fill="white" font-size="12" font-weight="bold">7 Days</text>
  <text x="360" y="95" fill="#666" font-size="12" text-anchor="middle">30 Days</text>
  <text x="440" y="95" fill="#666" font-size="12" text-anchor="middle">90 Days</text>
  <!-- Revenue Card -->
  <rect x="272" y="120" width="280" height="180" rx="12" fill="white"/>
  <text x="290" y="148" font-size="14" font-weight="bold" fill="#1a1a2e">💰 Revenue</text>
  <text x="290" y="180" font-size="32" font-weight="bold" fill="#3f51b5">₹2,45,000</text>
  <text x="290" y="210" font-size="11" fill="#888">Monthly: ₹8.2L</text>
  <text x="290" y="228" font-size="11" fill="#888">Daily Avg: ₹35,000</text>
  <text x="290" y="246" font-size="11" fill="#888">Projected: ₹10.5L</text>
  <text x="290" y="270" font-size="11" fill="#4caf50">↑ 12.5% vs last period</text>
  <!-- Users Card -->
  <rect x="572" y="120" width="280" height="180" rx="12" fill="white"/>
  <text x="590" y="148" font-size="14" font-weight="bold" fill="#1a1a2e">👥 Users</text>
  <text x="590" y="180" font-size="32" font-weight="bold" fill="#3f51b5">12,847</text>
  <text x="590" y="210" font-size="11" fill="#888">New Today: 42</text>
  <text x="590" y="228" font-size="11" fill="#888">This Month: 1,247</text>
  <text x="590" y="246" font-size="11" fill="#888">Active: 3,891</text>
  <text x="590" y="270" font-size="11" fill="#4caf50">↑ 8.3% growth rate</text>
  <!-- Bookings Card -->
  <rect x="872" y="120" width="280" height="180" rx="12" fill="white"/>
  <text x="890" y="148" font-size="14" font-weight="bold" fill="#1a1a2e">📋 Bookings</text>
  <text x="890" y="180" font-size="32" font-weight="bold" fill="#3f51b5">3,291</text>
  <text x="890" y="210" font-size="11" fill="#888">Today: 42</text>
  <text x="890" y="228" font-size="11" fill="#888">Conversion: 68.5%</text>
  <text x="890" y="246" font-size="11" fill="#888">Cancellations: 156</text>
  <text x="890" y="270" font-size="11" fill="#ff9800">↔ 4.7% cancellation rate</text>
  <!-- Service Distribution -->
  <rect x="272" y="320" width="880" height="200" rx="12" fill="white"/>
  <text x="290" y="350" font-size="14" font-weight="bold" fill="#1a1a2e">Service Distribution</text>
  <rect x="290" y="370" width="820" height="28" rx="14" fill="#f0f0f0"/>
  <rect x="290" y="370" width="310" height="28" rx="14" fill="#3f51b5"/><text x="350" y="390" fill="white" font-size="11">✈ Flights (1,247 bookings - 38%)</text>
  <rect x="290" y="410" width="820" height="28" rx="14" fill="#f0f0f0"/>
  <rect x="290" y="410" width="250" height="28" rx="14" fill="#ff4081"/><text x="350" y="430" fill="white" font-size="11">🏨 Hotels (986 bookings - 30%)</text>
  <rect x="290" y="450" width="820" height="28" rx="14" fill="#f0f0f0"/>
  <rect x="290" y="450" width="120" height="28" rx="14" fill="#4caf50"/><text x="350" y="470" fill="white" font-size="11">🚗 Cars (493 bookings - 15%)</text>
  <rect x="290" y="490" width="820" height="28" rx="14" fill="#f0f0f0"/>
  <rect x="290" y="490" width="100" height="28" rx="14" fill="#ff9800"/><text x="350" y="510" fill="white" font-size="11">🛡 Insurance (395 bookings - 12%)</text>
</svg>
