<svg xmlns="http://www.w3.org/2000/svg" viewBox="0 0 1100 750" font-family="'Inter','Segoe UI',sans-serif">
  <defs><filter id="shadow1"><feDropShadow dx="0" dy="2" stdDeviation="4" flood-color="#000" flood-opacity="0.08"/></filter></defs>
  <rect width="1100" height="750" fill="#f5f7fa"/>
  <rect width="1100" height="56" fill="#3f51b5"/>
  <text x="24" y="36" fill="white" font-size="18" font-weight="700">✈ TravelSphere</text>
  <text x="40" y="100" font-size="22" font-weight="700" fill="#1a1a2e">Travel Insurance</text>
  <text x="40" y="124" font-size="13" fill="#666">Protect your trip with comprehensive coverage</text>

  <!-- Insurance Card 1 - Basic -->
  <rect x="40" y="160" rx="16" ry="16" width="320" height="320" fill="white" filter="url(#shadow1)"/>
  <text x="200" y="200" font-size="48" text-anchor="middle" fill="#3f51b5">☂</text>
  <text x="200" y="226" font-size="16" font-weight="700" fill="#1a1a2e" text-anchor="middle">Basic Plan</text>
  <text x="60" y="256" fill="#888" font-size="11" text-anchor="middle">Essential coverage for short trips</text>
  <text x="200" y="300" font-size="28" font-weight="800" fill="#3f51b5" text-anchor="middle">₹500</text>
  <text x="200" y="322" fill="#666" font-size="12" text-anchor="middle">for 7 days coverage</text>
  <text x="60" y="356" fill="#666" font-size="11" text-anchor="middle">Coverage: ₹5,00,000</text>
  <rect x="120" y="376" rx="20" ry="20" width="160" height="36" fill="#3f51b5"/>
  <text x="200" y="400" fill="white" font-size="12" text-anchor="middle" font-weight="600">🛒 Buy Now</text>

  <!-- Insurance Card 2 - Standard -->
  <rect x="390" y="160" rx="16" ry="16" width="320" height="320" fill="white" filter="url(#shadow1)"/>
  <rect x="390" y="160" rx="16" ry="16" width="320" height="4" fill="#ff4081"/>
  <text x="550" y="200" font-size="48" text-anchor="middle" fill="#3f51b5">☂</text>
  <text x="550" y="226" font-size="16" font-weight="700" fill="#1a1a2e" text-anchor="middle">Standard Plan</text>
  <rect x="470" y="232" rx="8" ry="8" width="160" height="18" fill="#e8f5e9"/>
  <text x="550" y="246" fill="#2e7d32" font-size="9" font-weight="600" text-anchor="middle">MOST POPULAR</text>
  <text x="410" y="276" fill="#888" font-size="11" text-anchor="middle">Medical + Baggage + Cancellation</text>
  <text x="550" y="320" font-size="28" font-weight="800" fill="#3f51b5" text-anchor="middle">₹1,200</text>
  <text x="550" y="342" fill="#666" font-size="12" text-anchor="middle">for 7 days coverage</text>
  <text x="410" y="376" fill="#666" font-size="11" text-anchor="middle">Coverage: ₹10,00,000</text>
  <rect x="470" y="396" rx="20" ry="20" width="160" height="36" fill="#3f51b5"/>
  <text x="550" y="420" fill="white" font-size="12" text-anchor="middle" font-weight="600">🛒 Buy Now</text>

  <!-- Insurance Card 3 - Premium -->
  <rect x="740" y="160" rx="16" ry="16" width="320" height="320" fill="white" filter="url(#shadow1)"/>
  <text x="900" y="200" font-size="48" text-anchor="middle" fill="#3f51b5">☂</text>
  <text x="900" y="226" font-size="16" font-weight="700" fill="#1a1a2e" text-anchor="middle">Premium Plan</text>
  <text x="760" y="256" fill="#888" font-size="11" text-anchor="middle">Comprehensive worldwide coverage</text>
  <text x="900" y="300" font-size="28" font-weight="800" fill="#3f51b5" text-anchor="middle">₹2,500</text>
  <text x="900" y="322" fill="#666" font-size="12" text-anchor="middle">for 7 days coverage</text>
  <text x="760" y="356" fill="#666" font-size="11" text-anchor="middle">Coverage: ₹25,00,000</text>
  <rect x="820" y="376" rx="20" ry="20" width="160" height="36" fill="#3f51b5"/>
  <text x="900" y="400" fill="white" font-size="12" text-anchor="middle" font-weight="600">🛒 Buy Now</text>

  <!-- Coverage comparison table -->
  <rect x="40" y="510" rx="16" ry="16" width="1020" height="220" fill="white" filter="url(#shadow1)"/>
  <text x="60" y="544" font-size="16" font-weight="700" fill="#1a1a2e">Coverage Comparison</text>

  <!-- Table header -->
  <rect x="60" y="564" rx="4" ry="4" width="250" height="32" fill="#f5f5f5"/>
  <text x="185" y="585" fill="#333" font-size="11" font-weight="600" text-anchor="middle">Coverage Type</text>
  <rect x="310" y="564" rx="4" ry="4" width="220" height="32" fill="#e8f5e9"/>
  <text x="420" y="585" fill="#2e7d32" font-size="11" font-weight="600" text-anchor="middle">Basic</text>
  <rect x="530" y="564" rx="4" ry="4" width="220" height="32" fill="#fce4ec"/>
  <text x="640" y="585" fill="#c62828" font-size="11" font-weight="600" text-anchor="middle">Standard</text>
  <rect x="750" y="564" rx="4" ry="4" width="220" height="32" fill="#e3f2fd"/>
  <text x="860" y="585" fill="#1565c0" font-size="11" font-weight="600" text-anchor="middle">Premium</text>

  <!-- Row 1 -->
  <text x="70" y="618" fill="#555" font-size="11">Medical Emergencies</text>
  <text x="420" y="618" fill="#666" font-size="11" text-anchor="middle">✓</text>
  <text x="640" y="618" fill="#666" font-size="11" text-anchor="middle">✓</text>
  <text x="860" y="618" fill="#666" font-size="11" text-anchor="middle">✓</text>

  <!-- Row 2 -->
  <text x="70" y="642" fill="#555" font-size="11">Baggage Loss/Theft</text>
  <text x="420" y="642" fill="#999" font-size="11" text-anchor="middle">✗</text>
  <text x="640" y="642" fill="#666" font-size="11" text-anchor="middle">✓</text>
  <text x="860" y="642" fill="#666" font-size="11" text-anchor="middle">✓</text>

  <!-- Row 3 -->
  <text x="70" y="666" fill="#555" font-size="11">Trip Cancellation</text>
  <text x="420" y="666" fill="#999" font-size="11" text-anchor="middle">✗</text>
  <text x="640" y="666" fill="#666" font-size="11" text-anchor="middle">✓</text>
  <text x="860" y="666" fill="#666" font-size="11" text-anchor="middle">✓</text>

  <!-- Row 4 -->
  <text x="70" y="690" fill="#555" font-size="11">Flight Delay Compensation</text>
  <text x="420" y="690" fill="#999" font-size="11" text-anchor="middle">✗</text>
  <text x="640" y="690" fill="#666" font-size="11" text-anchor="middle">✓</text>
  <text x="860" y="690" fill="#666" font-size="11" text-anchor="middle">✓</text>

  <!-- Row 5 -->
  <text x="70" y="714" fill="#555" font-size="11">Adventure Sports Coverage</text>
  <text x="420" y="714" fill="#999" font-size="11" text-anchor="middle">✗</text>
  <text x="640" y="714" fill="#999" font-size="11" text-anchor="middle">✗</text>
  <text x="860" y="714" fill="#666" font-size="11" text-anchor="middle">✓</text>
</svg>
