<svg xmlns="http://www.w3.org/2000/svg" viewBox="0 0 1100 750" font-family="'Inter','Segoe UI',sans-serif">
  <defs><filter id="shadow1"><feDropShadow dx="0" dy="2" stdDeviation="4" flood-color="#000" flood-opacity="0.08"/></filter></defs>
  <rect width="1100" height="750" fill="#f5f7fa"/>
  <rect width="1100" height="56" fill="#3f51b5"/>
  <text x="24" y="36" fill="white" font-size="18" font-weight="700">✈ TravelSphere</text>
  <text x="40" y="100" font-size="22" font-weight="700" fill="#1a1a2e">Holiday Packages</text>
  <text x="40" y="124" font-size="13" fill="#666">All-in-one holiday deals at unbeatable prices</text>

  <!-- Search bar -->
  <rect x="40" y="148" rx="16" ry="16" width="700" height="60" fill="white" filter="url(#shadow1)"/>
  <rect x="64" y="160" rx="8" ry="8" width="550" height="36" fill="none" stroke="#ddd" stroke-width="1"/>
  <text x="80" y="184" fill="#bbb" font-size="12">Search destinations...</text>
  <rect x="632" y="158" rx="20" ry="20" width="90" height="36" fill="#3f51b5"/>
  <text x="677" y="182" fill="white" font-size="12" text-anchor="middle" font-weight="600">Search</text>

  <!-- Package Cards -->
  <rect x="40" y="230" rx="16" ry="16" width="340" height="200" fill="white" filter="url(#shadow1)"/>
  <text x="60" y="266" font-size="28">🎁</text>
  <text x="100" y="262" font-size="15" font-weight="600" fill="#1a1a2e">Goa Getaway</text>
  <text x="100" y="280" fill="#666" font-size="11">Goa · 5D/4N</text>
  <text x="60" y="308" fill="#888" font-size="11">Enjoy the sun, sand, and sea with this</text>
  <text x="60" y="324" fill="#888" font-size="11">amazing Goa package including beachfront</text>
  <text x="60" y="340" fill="#888" font-size="11">accommodation and water sports.</text>
  <rect x="60" y="352" rx="10" ry="10" height="22" width="80" fill="#e8eaf6"/><text x="66" y="368" fill="#3f51b5" font-size="9" font-weight="500">Hotel</text>
  <rect x="146" y="352" rx="10" ry="10" height="22" width="70" fill="#e8eaf6"/><text x="152" y="368" fill="#3f51b5" font-size="9" font-weight="500">Meals</text>
  <rect x="222" y="352" rx="10" ry="10" height="22" width="80" fill="#e8eaf6"/><text x="228" y="368" fill="#3f51b5" font-size="9" font-weight="500">Sightseeing</text>
  <text x="60" y="400" fill="#666" font-size="10">Starting from</text>
  <text x="60" y="420" font-size="18" font-weight="800" fill="#3f51b5">₹12,999/person</text>
  <text x="300" y="420" fill="#666" font-size="11">⭐ 4.5</text>

  <rect x="410" y="230" rx="16" ry="16" width="340" height="200" fill="white" filter="url(#shadow1)"/>
  <text x="430" y="266" font-size="28">🎁</text>
  <text x="470" y="262" font-size="15" font-weight="600" fill="#1a1a2e">Kerala Backwaters</text>
  <text x="470" y="280" fill="#666" font-size="11">Kerala · 6D/5N</text>
  <text x="430" y="308" fill="#888" font-size="11">Experience the serene backwaters of</text>
  <text x="430" y="324" fill="#888" font-size="11">Kerala with houseboat stay, ayurvedic</text>
  <text x="430" y="340" fill="#888" font-size="11">massages, and delicious cuisine.</text>
  <rect x="430" y="352" rx="10" ry="10" height="22" width="80" fill="#e8eaf6"/><text x="436" y="368" fill="#3f51b5" font-size="9" font-weight="500">Houseboat</text>
  <rect x="516" y="352" rx="10" ry="10" height="22" width="70" fill="#e8eaf6"/><text x="522" y="368" fill="#3f51b5" font-size="9" font-weight="500">Meals</text>
  <rect x="592" y="352" rx="10" ry="10" height="22" width="80" fill="#e8eaf6"/><text x="598" y="368" fill="#3f51b5" font-size="9" font-weight="500">Ayurveda</text>
  <text x="430" y="400" fill="#666" font-size="10">Starting from</text>
  <text x="430" y="420" font-size="18" font-weight="800" fill="#3f51b5">₹18,500/person</text>
  <text x="670" y="420" fill="#666" font-size="11">⭐ 4.7</text>

  <rect x="40" y="450" rx="16" ry="16" width="340" height="200" fill="white" filter="url(#shadow1)"/>
  <text x="60" y="486" font-size="28">🎁</text>
  <text x="100" y="482" font-size="15" font-weight="600" fill="#1a1a2e">Manali Adventure</text>
  <text x="100" y="500" fill="#666" font-size="11">Himachal · 5D/4N</text>
  <text x="60" y="528" fill="#888" font-size="11">Thrilling adventure package in Manali</text>
  <text x="60" y="544" fill="#888" font-size="11">with paragliding, river rafting, and</text>
  <text x="60" y="560" fill="#888" font-size="11">scenic mountain trekking.</text>
  <rect x="60" y="572" rx="10" ry="10" height="22" width="80" fill="#e8eaf6"/><text x="66" y="588" fill="#3f51b5" font-size="9" font-weight="500">Adventure</text>
  <rect x="146" y="572" rx="10" ry="10" height="22" width="70" fill="#e8eaf6"/><text x="152" y="588" fill="#3f51b5" font-size="9" font-weight="500">Hotel</text>
  <rect x="222" y="572" rx="10" ry="10" height="22" width="80" fill="#e8eaf6"/><text x="228" y="588" fill="#3f51b5" font-size="9" font-weight="500">Meals</text>
  <text x="60" y="620" fill="#666" font-size="10">Starting from</text>
  <text x="60" y="640" font-size="18" font-weight="800" fill="#3f51b5">₹9,999/person</text>
  <text x="300" y="640" fill="#666" font-size="11">⭐ 4.3</text>

  <rect x="410" y="450" rx="16" ry="16" width="340" height="200" fill="white" filter="url(#shadow1)"/>
  <text x="430" y="486" font-size="28">🎁</text>
  <text x="470" y="482" font-size="15" font-weight="600" fill="#1a1a2e">European Discovery</text>
  <text x="470" y="500" fill="#666" font-size="11">Europe · 10D/9N</text>
  <text x="430" y="528" fill="#888" font-size="11">Discover the best of Europe including</text>
  <text x="430" y="544" fill="#888" font-size="11">Paris, Rome, and Amsterdam with guided</text>
  <text x="430" y="560" fill="#888" font-size="11">tours and premium accommodations.</text>
  <rect x="430" y="572" rx="10" ry="10" height="22" width="80" fill="#e8eaf6"/><text x="436" y="588" fill="#3f51b5" font-size="9" font-weight="500">Flights</text>
  <rect x="516" y="572" rx="10" ry="10" height="22" width="70" fill="#e8eaf6"/><text x="522" y="588" fill="#3f51b5" font-size="9" font-weight="500">Hotel</text>
  <rect x="592" y="572" rx="10" ry="10" height="22" width="80" fill="#e8eaf6"/><text x="598" y="588" fill="#3f51b5" font-size="9" font-weight="500">Guide</text>
  <text x="430" y="620" fill="#666" font-size="10">Starting from</text>
  <text x="430" y="640" font-size="18" font-weight="800" fill="#3f51b5">₹85,000/person</text>
  <text x="670" y="640" fill="#666" font-size="11">⭐ 4.8</text>
</svg>
