<svg xmlns="http://www.w3.org/2000/svg" viewBox="0 0 1200 800" font-family="Inter, sans-serif">
  <rect width="1200" height="800" fill="#f0f2f5"/>
  <rect x="0" y="0" width="240" height="800" fill="#1a1a2e"/>
  <text x="24" y="40" fill="white" font-size="18" font-weight="bold">🛡 Admin Panel</text>
  <line x1="0" y1="56" x2="240" y2="56" stroke="rgba(255,255,255,0.1)"/>
  <rect x="12" y="72" width="216" height="40" rx="8" fill="transparent"/><text x="36" y="97" fill="rgba(255,255,255,0.7)" font-size="14">📊 Dashboard</text>
  <rect x="12" y="120" width="216" height="40" rx="8" fill="transparent"/><text x="36" y="145" fill="rgba(255,255,255,0.7)" font-size="14">👥 Users</text>
  <rect x="12" y="168" width="216" height="40" rx="8" fill="transparent"/><text x="36" y="193" fill="rgba(255,255,255,0.7)" font-size="14">📋 Bookings</text>
  <rect x="12" y="216" width="216" height="40" rx="8" fill="transparent"/><text x="36" y="241" fill="rgba(255,255,255,0.7)" font-size="14">📈 Analytics</text>
  <rect x="12" y="264" width="216" height="40" rx="8" fill="transparent"/><text x="36" y="289" fill="rgba(255,255,255,0.7)" font-size="14">🎫 Support</text>
  <rect x="12" y="312" width="216" height="40" rx="8" fill="transparent"/><text x="36" y="337" fill="rgba(255,255,255,0.7)" font-size="14">⚠ Fraud Alerts</text>
  <rect x="12" y="360" width="216" height="40" rx="8" fill="#3f51b5"/><text x="36" y="385" fill="white" font-size="14">🔧 System</text>
  <text x="272" y="40" font-size="24" font-weight="bold" fill="#1a1a2e">System Health</text><text x="272" y="60" font-size="12" fill="#888">Monitoring all microservices</text>
  <!-- Overall Status -->
  <rect x="272" y="80" width="880" height="60" rx="12" fill="white"/>
  <rect x="276" y="80" width="4" height="60" rx="2" fill="#4caf50"/>
  <circle cx="310" cy="110" r="20" fill="#e8f5e9"/><text x="303" y="116" fill="#4caf50" font-size="20">✓</text>
  <text x="345" y="106" font-size="20" font-weight="bold" fill="#1a1a2e">HEALTHY</text>
  <text x="345" y="126" font-size="12" fill="#888">Uptime: 12d 4h 32m</text>
  <!-- Microservices Card -->
  <rect x="272" y="155" width="430" height="280" rx="12" fill="white"/>
  <text x="290" y="183" font-size="14" font-weight="bold" fill="#1a1a2e">☁ Microservices</text>
  <text x="300" y="212" font-size="13" fill="#333">API Gateway</text><rect x="560" y="200" width="50" height="22" rx="11" fill="#e8f5e9"/><text x="570" y="215" font-size="11" fill="#2e7d32">UP</text><text x="620" y="215" font-size="11" fill="#888">45ms</text>
  <text x="300" y="240" font-size="13" fill="#333">Auth Service</text><rect x="560" y="228" width="50" height="22" rx="11" fill="#e8f5e9"/><text x="570" y="243" font-size="11" fill="#2e7d32">UP</text><text x="620" y="243" font-size="11" fill="#888">32ms</text>
  <text x="300" y="268" font-size="13" fill="#333">Flight Service</text><rect x="560" y="256" width="50" height="22" rx="11" fill="#e8f5e9"/><text x="570" y="271" font-size="11" fill="#2e7d32">UP</text><text x="620" y="271" font-size="11" fill="#888">28ms</text>
  <text x="300" y="296" font-size="13" fill="#333">Hotel Service</text><rect x="560" y="284" width="50" height="22" rx="11" fill="#e8f5e9"/><text x="570" y="299" font-size="11" fill="#2e7d32">UP</text><text x="620" y="299" font-size="11" fill="#888">35ms</text>
  <text x="300" y="324" font-size="13" fill="#333">AI Agent Service</text><rect x="560" y="312" width="50" height="22" rx="11" fill="#e8f5e9"/><text x="570" y="327" font-size="11" fill="#2e7d32">UP</text><text x="620" y="327" font-size="11" fill="#888">120ms</text>
  <text x="300" y="352" font-size="13" fill="#333">Insurance Service</text><rect x="560" y="340" width="50" height="22" rx="11" fill="#e8f5e9"/><text x="570" y="355" font-size="11" fill="#2e7d32">UP</text><text x="620" y="355" font-size="11" fill="#888">42ms</text>
  <text x="300" y="380" font-size="13" fill="#333">Payment Service</text><rect x="560" y="368" width="50" height="22" rx="11" fill="#e8f5e9"/><text x="570" y="383" font-size="11" fill="#2e7d32">UP</text><text x="620" y="383" font-size="11" fill="#888">38ms</text>
  <!-- Database Card -->
  <rect x="722" y="155" width="430" height="130" rx="12" fill="white"/>
  <text x="740" y="183" font-size="14" font-weight="bold" fill="#1a1a2e">💾 Database (PostgreSQL)</text>
  <text x="740" y="210" font-size="13" fill="#333">Status</text><rect x="960" y="198" width="50" height="22" rx="11" fill="#e8f5e9"/><text x="972" y="213" font-size="11" fill="#2e7d32">UP</text>
  <text x="740" y="238" font-size="13" fill="#333">Active Connections</text><text x="1020" y="238" font-size="13" font-weight="bold">12 / 100</text>
  <text x="740" y="264" font-size="13" fill="#333">Avg Query Time</text><text x="1020" y="264" font-size="13" font-weight="bold">3.5ms</text>
  <!-- Cache Card -->
  <rect x="722" y="300" width="430" height="130" rx="12" fill="white"/>
  <text x="740" y="328" font-size="14" font-weight="bold" fill="#1a1a2e">⚡ Cache (Redis)</text>
  <text x="740" y="354" font-size="13" fill="#333">Status</text><rect x="960" y="342" width="50" height="22" rx="11" fill="#e8f5e9"/><text x="972" y="357" font-size="11" fill="#2e7d32">UP</text>
  <text x="740" y="380" font-size="13" fill="#333">Hit Rate</text><text x="1020" y="380" font-size="13" font-weight="bold">89%</text>
  <text x="740" y="404" font-size="13" fill="#333">Memory Usage</text><text x="1020" y="404" font-size="13" font-weight="bold">256 MB</text>
</svg>
